<svg width="40" height="40" viewBox="0 0 40 40" fill="none" xmlns="http://www.w3.org/2000/svg">
<g filter="url(#filter0_d_1_1550)">
<circle cx="20" cy="19" r="16" fill="white"/>
</g>
<path d="M18.7 24.275C18.9 24.075 18.996 23.8334 18.988 23.55C18.98 23.2667 18.8757 23.025 18.675 22.825L15.85 20H27C27.2833 20 27.521 19.904 27.713 19.712C27.905 19.52 28.0007 19.2827 28 19C28 18.7167 27.904 18.479 27.712 18.287C27.52 18.095 27.2827 17.9994 27 18H15.85L18.7 15.15C18.9 14.95 19 14.7124 19 14.437C19 14.1617 18.9 13.9244 18.7 13.725C18.5 13.525 18.2623 13.425 17.987 13.425C17.7117 13.425 17.4743 13.525 17.275 13.725L12.7 18.3C12.6 18.4 12.529 18.5084 12.487 18.625C12.445 18.7417 12.4243 18.8667 12.425 19C12.425 19.1334 12.446 19.2584 12.488 19.375C12.53 19.4917 12.6007 19.6 12.7 19.7L17.3 24.3C17.4833 24.4834 17.7123 24.575 17.987 24.575C18.2617 24.575 18.4993 24.475 18.7 24.275Z" fill="black"/>
<defs>
<filter id="filter0_d_1_1550" x="0" y="0" width="40" height="40" filterUnits="userSpaceOnUse" color-interpolation-filters="sRGB">
<feFlood flood-opacity="0" result="BackgroundImageFix"/>
<feColorMatrix in="SourceAlpha" type="matrix" values="0 0 0 0 0 0 0 0 0 0 0 0 0 0 0 0 0 0 127 0" result="hardAlpha"/>
<feOffset dy="1"/>
<feGaussianBlur stdDeviation="2"/>
<feComposite in2="hardAlpha" operator="out"/>
<feColorMatrix type="matrix" values="0 0 0 0 0 0 0 0 0 0 0 0 0 0 0 0 0 0 0.33 0"/>
<feBlend mode="normal" in2="BackgroundImageFix" result="effect1_dropShadow_1_1550"/>
<feBlend mode="normal" in="SourceGraphic" in2="effect1_dropShadow_1_1550" result="shape"/>
</filter>
</defs>
</svg>
