<svg width="12" height="13" viewBox="0 0 12 13" fill="none" xmlns="http://www.w3.org/2000/svg">
<path d="M6.39062 5.29688H7.48438V3.65625H9.125V2.5625H7.48438V0.921875H6.39062V2.5625H4.75V3.65625H6.39062M4.20312 10.2188C3.60156 10.2188 3.10938 10.7109 3.10938 11.3125C3.10938 11.9141 3.60156 12.4062 4.20312 12.4062C4.80469 12.4062 5.29688 11.9141 5.29688 11.3125C5.29688 10.7109 4.80469 10.2188 4.20312 10.2188ZM9.67188 10.2188C9.07031 10.2188 8.57812 10.7109 8.57812 11.3125C8.57812 11.9141 9.07031 12.4062 9.67188 12.4062C10.2734 12.4062 10.7656 11.9141 10.7656 11.3125C10.7656 10.7109 10.2734 10.2188 9.67188 10.2188ZM4.3125 8.46875V8.41406L4.80469 7.48438H8.85156C9.23438 7.48438 9.61719 7.26562 9.78125 6.9375L11.9141 3.10938L10.9844 2.5625L8.85156 6.39062H5.02344L2.72656 1.46875H0.921875V2.5625H2.01562L3.98438 6.71875L3.21875 8.03125C3.16406 8.19531 3.10938 8.35938 3.10938 8.57812C3.10938 9.17969 3.60156 9.67188 4.20312 9.67188H10.7656V8.57812H4.42188C4.36719 8.57812 4.3125 8.52344 4.3125 8.46875Z" fill="#1D7000"/>
</svg>
