<svg width="17" height="10" viewBox="0 0 17 10" fill="none" xmlns="http://www.w3.org/2000/svg">
<path d="M8.12452 9.5454C7.93021 9.5454 7.74173 9.50896 7.55908 9.4361C7.37643 9.36323 7.22487 9.26608 7.1044 9.14464L0.40076 2.441C0.133586 2.17382 0 1.83378 0 1.42088C0 1.00797 0.133586 0.667934 0.40076 0.40076C0.667934 0.133586 1.00797 0 1.42088 0C1.83378 0 2.17382 0.133586 2.441 0.40076L8.12452 6.08428L13.808 0.40076C14.0752 0.133586 14.4153 0 14.8282 0C15.2411 0 15.5811 0.133586 15.8483 0.40076C16.1154 0.667934 16.249 1.00797 16.249 1.42088C16.249 1.83378 16.1154 2.17382 15.8483 2.441L9.14464 9.14464C8.9989 9.29037 8.84103 9.39384 8.67101 9.45504C8.50099 9.51625 8.31883 9.54637 8.12452 9.5454Z" fill="black"/>
</svg>
