<svg width="37" height="38" viewBox="0 0 37 38" fill="none" xmlns="http://www.w3.org/2000/svg">
<path d="M4.18541 16.963C3.06504 16.963 2.10559 16.5638 1.30707 15.7653C0.508554 14.9668 0.109974 14.008 0.111332 12.889V4.74083C0.111332 3.62046 0.510591 2.66101 1.30911 1.86249C2.10763 1.06397 3.06639 0.665393 4.18541 0.666752H12.3336C13.4539 0.666752 14.4134 1.06601 15.2119 1.86453C16.0104 2.66305 16.409 3.62181 16.4076 4.74083V12.889C16.4076 14.0093 16.0084 14.9688 15.2099 15.7673C14.4113 16.5658 13.4526 16.9644 12.3336 16.963H4.18541ZM4.18541 37.3334C3.06504 37.3334 2.10559 36.9342 1.30707 36.1356C0.508554 35.3371 0.109974 34.3784 0.111332 33.2593V25.1112C0.111332 23.9908 0.510591 23.0314 1.30911 22.2329C2.10763 21.4343 3.06639 21.0358 4.18541 21.0371H12.3336C13.4539 21.0371 14.4134 21.4364 15.2119 22.2349C16.0104 23.0334 16.409 23.9922 16.4076 25.1112V33.2593C16.4076 34.3797 16.0084 35.3392 15.2099 36.1377C14.4113 36.9362 13.4526 37.3348 12.3336 37.3334H4.18541ZM24.5558 16.963C23.4354 16.963 22.476 16.5638 21.6774 15.7653C20.8789 14.9668 20.4803 14.008 20.4817 12.889V4.74083C20.4817 3.62046 20.881 2.66101 21.6795 1.86249C22.478 1.06397 23.4368 0.665393 24.5558 0.666752H32.7039C33.8243 0.666752 34.7837 1.06601 35.5823 1.86453C36.3808 2.66305 36.7794 3.62181 36.778 4.74083V12.889C36.778 14.0093 36.3787 14.9688 35.5802 15.7673C34.7817 16.5658 33.8229 16.9644 32.7039 16.963H24.5558ZM24.5558 37.3334C23.4354 37.3334 22.476 36.9342 21.6774 36.1356C20.8789 35.3371 20.4803 34.3784 20.4817 33.2593V25.1112C20.4817 23.9908 20.881 23.0314 21.6795 22.2329C22.478 21.4343 23.4368 21.0358 24.5558 21.0371H32.7039C33.8243 21.0371 34.7837 21.4364 35.5823 22.2349C36.3808 23.0334 36.7794 23.9922 36.778 25.1112V33.2593C36.778 34.3797 36.3787 35.3392 35.5802 36.1377C34.7817 36.9362 33.8229 37.3348 32.7039 37.3334H24.5558Z" fill="black"/>
</svg>
