<svg width="34" height="34" viewBox="0 0 34 34" fill="none" xmlns="http://www.w3.org/2000/svg">
<path d="M13.9683 30.3592L12.75 31.1667L8.5 28.3333L4.25 31.1667V4.25H29.75V14.45C28.475 13.9117 26.9167 14.1667 25.84 15.2292L13.9683 27.1008V30.3592ZM16.8017 28.2767L25.5 19.5925L28.3758 22.4825L19.6917 31.1667H16.8017V28.2767ZM28.8858 17.2125C28.8544 17.1765 28.8158 17.1476 28.7725 17.1275C28.6414 17.0358 28.483 16.9914 28.3234 17.0017C28.1637 17.012 28.0124 17.0763 27.8942 17.1842L27.8658 17.2125L26.4775 18.6008L29.3675 21.4908L30.7558 20.1025C31.0392 19.8333 31.0392 19.3658 30.7558 19.0825L28.8858 17.2125Z" fill="#828282"/>
</svg>
