<svg width="46" height="36" viewBox="0 0 46 36" fill="none" xmlns="http://www.w3.org/2000/svg">
<path d="M45.9443 3.00025C45.946 2.29359 45.7068 1.70025 45.2268 1.22025C44.7468 0.740253 44.1527 0.500253 43.4443 0.500253H15.9443C15.2377 0.498586 14.6443 0.737753 14.1643 1.21775C13.6843 1.69775 13.4443 2.29192 13.4443 3.00025H45.9443ZM45.9443 3.00025V8.00025C45.9443 8.70859 45.7043 9.30275 45.2243 9.78275C44.7443 10.2628 44.151 10.5019 43.4443 10.5003L45.9443 3.00025ZM1.72212 8.00209V8.00025V3.00025C1.72212 2.4882 1.8871 2.09494 2.21432 1.76773C2.54144 1.4406 2.93328 1.27683 3.44251 1.27803V1.27803H3.44434H8.44434C8.95639 1.27803 9.34965 1.44301 9.67687 1.77023C10.004 2.09735 10.1678 2.48919 10.1666 2.99842V3.00025V8.00025C10.1666 8.5123 10.0016 8.90556 9.67437 9.23278C9.34725 9.5599 8.95541 9.72368 8.44618 9.72248H8.44434H3.44434C2.93229 9.72248 2.53903 9.5575 2.21182 9.23028L1.66966 9.77243L2.21182 9.23028C1.88469 8.90316 1.72092 8.51132 1.72212 8.00209ZM14.2221 8.00209V8.00025V3.00025C14.2221 2.4882 14.3871 2.09494 14.7143 1.76772C15.0414 1.4406 15.4333 1.27683 15.9425 1.27803H15.9443H43.4443C43.9564 1.27803 44.3497 1.44301 44.6769 1.77022C45.004 2.09735 45.1678 2.48919 45.1666 2.99842V3.00025V8.00025C45.1666 8.51231 45.0016 8.90557 44.6744 9.23278C44.3472 9.5599 43.9554 9.72368 43.4462 9.72248H43.4443H15.9443C15.4323 9.72248 15.039 9.5575 14.7118 9.23028C14.3847 8.90316 14.2209 8.51132 14.2221 8.00209ZM14.2221 20.5021V20.5003V15.5003C14.2221 14.9882 14.3871 14.5949 14.7143 14.2677C15.0414 13.9406 15.4333 13.7768 15.9425 13.778H15.9443H43.4443C43.9564 13.778 44.3497 13.943 44.6769 14.2702C45.004 14.5973 45.1678 14.9892 45.1666 15.4984V15.5003V20.5003C45.1666 21.0123 45.0016 21.4056 44.6744 21.7328C44.3472 22.0599 43.9554 22.2237 43.4462 22.2225H43.4443H15.9443C15.4323 22.2225 15.039 22.0575 14.7118 21.7303C14.3847 21.4032 14.2209 21.0113 14.2221 20.5021ZM1.72212 20.5021V20.5003V15.5003C1.72212 14.9882 1.8871 14.5949 2.21432 14.2677L1.66434 13.7178L2.21432 14.2677C2.54144 13.9406 2.93328 13.7768 3.44251 13.778H3.44434H8.44434C8.95639 13.778 9.34965 13.943 9.67687 14.2702C10.004 14.5973 10.1678 14.9892 10.1666 15.4984V15.5003V20.5003C10.1666 21.0123 10.0016 21.4056 9.67437 21.7328C9.34725 22.0599 8.95541 22.2237 8.44618 22.2225H8.44434H3.44434C2.93229 22.2225 2.53903 22.0575 2.21182 21.7303C1.88469 21.4032 1.72092 21.0113 1.72212 20.5021ZM14.2221 33.0021V33.0003V28.0003C14.2221 27.4882 14.3871 27.0949 14.7143 26.7677C15.0414 26.4406 15.4333 26.2768 15.9425 26.278H15.9443H43.4443C43.9564 26.278 44.3497 26.443 44.6769 26.7702C45.004 27.0974 45.1678 27.4892 45.1666 27.9984V28.0003V33.0003C45.1666 33.5123 45.0016 33.9056 44.6744 34.2328C44.3472 34.5599 43.9554 34.7237 43.4462 34.7225H43.4443H15.9443C15.4323 34.7225 15.039 34.5575 14.7118 34.2303C14.3847 33.9032 14.2209 33.5113 14.2221 33.0021ZM1.72212 33.0021V33.0003V28.0003C1.72212 27.4882 1.8871 27.0949 2.21432 26.7677L1.67113 26.2245L2.21432 26.7677C2.54144 26.4406 2.93328 26.2768 3.44251 26.278H3.44434H8.44434C8.95639 26.278 9.34965 26.443 9.67687 26.7702C10.004 27.0974 10.1678 27.4892 10.1666 27.9984V28.0003V33.0003C10.1666 33.5123 10.0016 33.9056 9.67437 34.2328C9.34725 34.5599 8.95541 34.7237 8.44618 34.7225H8.44434H3.44434C2.93229 34.7225 2.53903 34.5575 2.21182 34.2303C1.88469 33.9032 1.72092 33.5113 1.72212 33.0021ZM13.4443 20.5003V15.5003C13.4443 14.7919 13.6843 14.1978 14.1643 13.7178C14.6443 13.2378 15.2377 12.9986 15.9443 13.0003L13.4443 20.5003Z" fill="white" stroke="black" stroke-width="1.55556"/>
</svg>
